<?xml version="1.0" encoding="UTF-8"?>
<!--Generator: Apple Native CoreSVG 149-->
<!DOCTYPE svg
PUBLIC "-//W3C//DTD SVG 1.1//EN"
       "http://www.w3.org/Graphics/SVG/1.1/DTD/svg11.dtd">
<svg version="1.1" xmlns="http://www.w3.org/2000/svg" xmlns:xlink="http://www.w3.org/1999/xlink" width="3300" height="2200">
 <!--glyph: "uni1005D8.medium", point size: 100.000000, font version: "Version 16.0d18e1", template writer version: "8"-->
 <g id="Notes">
  <rect height="2200" id="artboard" style="fill:white;opacity:1" width="3300" x="0" y="0"/>
  <line id="" style="fill:none;stroke:black;opacity:1;stroke-width:0.5;" x1="263" x2="3036" y1="292" y2="292"/>
  <text style="stroke:none;fill:black;font-family:-apple-system,&quot;SF Pro Display&quot;,&quot;SF Pro Text&quot;,Helvetica,sans-serif;font-weight:bold;" transform="matrix(1 0 0 1 263 322)">Weight/Scale Variations</text>
  <text style="stroke:none;fill:black;font-family:-apple-system,&quot;SF Pro Display&quot;,&quot;SF Pro Text&quot;,Helvetica,sans-serif;text-anchor:middle;" transform="matrix(1 0 0 1 559.711 322)">Ultralight</text>
  <text style="stroke:none;fill:black;font-family:-apple-system,&quot;SF Pro Display&quot;,&quot;SF Pro Text&quot;,Helvetica,sans-serif;text-anchor:middle;" transform="matrix(1 0 0 1 856.422 322)">Thin</text>
  <text style="stroke:none;fill:black;font-family:-apple-system,&quot;SF Pro Display&quot;,&quot;SF Pro Text&quot;,Helvetica,sans-serif;text-anchor:middle;" transform="matrix(1 0 0 1 1153.13 322)">Light</text>
  <text style="stroke:none;fill:black;font-family:-apple-system,&quot;SF Pro Display&quot;,&quot;SF Pro Text&quot;,Helvetica,sans-serif;text-anchor:middle;" transform="matrix(1 0 0 1 1449.84 322)">Regular</text>
  <text style="stroke:none;fill:black;font-family:-apple-system,&quot;SF Pro Display&quot;,&quot;SF Pro Text&quot;,Helvetica,sans-serif;text-anchor:middle;" transform="matrix(1 0 0 1 1746.56 322)">Medium</text>
  <text style="stroke:none;fill:black;font-family:-apple-system,&quot;SF Pro Display&quot;,&quot;SF Pro Text&quot;,Helvetica,sans-serif;text-anchor:middle;" transform="matrix(1 0 0 1 2043.27 322)">Semibold</text>
  <text style="stroke:none;fill:black;font-family:-apple-system,&quot;SF Pro Display&quot;,&quot;SF Pro Text&quot;,Helvetica,sans-serif;text-anchor:middle;" transform="matrix(1 0 0 1 2339.98 322)">Bold</text>
  <text style="stroke:none;fill:black;font-family:-apple-system,&quot;SF Pro Display&quot;,&quot;SF Pro Text&quot;,Helvetica,sans-serif;text-anchor:middle;" transform="matrix(1 0 0 1 2636.69 322)">Heavy</text>
  <text style="stroke:none;fill:black;font-family:-apple-system,&quot;SF Pro Display&quot;,&quot;SF Pro Text&quot;,Helvetica,sans-serif;text-anchor:middle;" transform="matrix(1 0 0 1 2933.4 322)">Black</text>
  <line id="" style="fill:none;stroke:black;opacity:1;stroke-width:0.5;" x1="263" x2="3036" y1="1903" y2="1903"/>
  <g id="" transform="matrix(1 0 0 1 263 1933)">
   <path d="M9.24805 0.830078C13.5547 0.830078 17.1387-2.74414 17.1387-7.05078C17.1387-11.3574 13.5449-14.9316 9.23828-14.9316C4.94141-14.9316 1.36719-11.3574 1.36719-7.05078C1.36719-2.74414 4.95117 0.830078 9.24805 0.830078ZM9.24805-0.654297C5.70312-0.654297 2.87109-3.49609 2.87109-7.05078C2.87109-10.6055 5.69336-13.4473 9.23828-13.4473C12.793-13.4473 15.6348-10.6055 15.6445-7.05078C15.6543-3.49609 12.8027-0.654297 9.24805-0.654297ZM6.39648-6.31836L8.50586-6.31836L8.50586-4.19922C8.50586-3.75977 8.79883-3.45703 9.22852-3.45703C9.67773-3.45703 9.9707-3.75977 9.9707-4.19922L9.9707-6.31836L12.0996-6.31836C12.5391-6.31836 12.8418-6.61133 12.8418-7.04102C12.8418-7.48047 12.5391-7.7832 12.0996-7.7832L9.9707-7.7832L9.9707-9.89258C9.9707-10.3418 9.67773-10.6445 9.22852-10.6445C8.79883-10.6445 8.50586-10.3418 8.50586-9.89258L8.50586-7.7832L6.39648-7.7832C5.94727-7.7832 5.64453-7.48047 5.64453-7.04102C5.64453-6.61133 5.94727-6.31836 6.39648-6.31836Z"/>
  </g>
  <g id="" transform="matrix(1 0 0 1 281.506 1933)">
   <path d="M11.709 2.91016C17.1582 2.91016 21.6699-1.61133 21.6699-7.05078C21.6699-12.5 17.1484-17.0117 11.6992-17.0117C6.25977-17.0117 1.74805-12.5 1.74805-7.05078C1.74805-1.61133 6.26953 2.91016 11.709 2.91016ZM11.709 1.25C7.09961 1.25 3.41797-2.44141 3.41797-7.05078C3.41797-11.6602 7.08984-15.3516 11.6992-15.3516C16.3086-15.3516 20-11.6602 20.0098-7.05078C20.0195-2.44141 16.3184 1.25 11.709 1.25ZM7.98828-6.23047L10.8789-6.23047L10.8789-3.32031C10.8789-2.83203 11.2109-2.5 11.6895-2.5C12.1777-2.5 12.5195-2.83203 12.5195-3.32031L12.5195-6.23047L15.4297-6.23047C15.918-6.23047 16.25-6.5625 16.25-7.04102C16.25-7.5293 15.918-7.87109 15.4297-7.87109L12.5195-7.87109L12.5195-10.7617C12.5195-11.2695 12.1777-11.6016 11.6895-11.6016C11.2109-11.6016 10.8789-11.2598 10.8789-10.7617L10.8789-7.87109L7.98828-7.87109C7.48047-7.87109 7.14844-7.5293 7.14844-7.04102C7.14844-6.5625 7.49023-6.23047 7.98828-6.23047Z"/>
  </g>
  <g id="" transform="matrix(1 0 0 1 304.924 1933)">
   <path d="M14.9707 5.66406C21.9336 5.66406 27.6953-0.0976562 27.6953-7.05078C27.6953-14.0137 21.9238-19.7754 14.9609-19.7754C8.00781-19.7754 2.25586-14.0137 2.25586-7.05078C2.25586-0.0976562 8.01758 5.66406 14.9707 5.66406ZM14.9707 3.84766C8.93555 3.84766 4.08203-1.01562 4.08203-7.05078C4.08203-13.0957 8.92578-17.9492 14.9609-17.9492C21.0059-17.9492 25.8594-13.0957 25.8691-7.05078C25.8789-1.01562 21.0156 3.84766 14.9707 3.84766ZM10.0586-6.14258L14.0625-6.14258L14.0625-2.12891C14.0625-1.5918 14.4336-1.2207 14.9512-1.2207C15.4883-1.2207 15.8594-1.5918 15.8594-2.12891L15.8594-6.14258L19.8828-6.14258C20.4102-6.14258 20.791-6.51367 20.791-7.03125C20.791-7.56836 20.4199-7.94922 19.8828-7.94922L15.8594-7.94922L15.8594-11.9531C15.8594-12.5098 15.4883-12.8809 14.9512-12.8809C14.4336-12.8809 14.0625-12.5 14.0625-11.9531L14.0625-7.94922L10.0586-7.94922C9.50195-7.94922 9.13086-7.56836 9.13086-7.03125C9.13086-6.51367 9.51172-6.14258 10.0586-6.14258Z"/>
  </g>
  <text style="stroke:none;fill:black;font-family:-apple-system,&quot;SF Pro Display&quot;,&quot;SF Pro Text&quot;,Helvetica,sans-serif;font-weight:bold;" transform="matrix(1 0 0 1 263 1953)">Design Variations</text>
  <text style="stroke:none;fill:black;font-family:-apple-system,&quot;SF Pro Display&quot;,&quot;SF Pro Text&quot;,Helvetica,sans-serif;" transform="matrix(1 0 0 1 263 1971)">Symbols are supported in up to nine weights and three scales.</text>
  <text style="stroke:none;fill:black;font-family:-apple-system,&quot;SF Pro Display&quot;,&quot;SF Pro Text&quot;,Helvetica,sans-serif;" transform="matrix(1 0 0 1 263 1989)">For optimal layout with text and other symbols, vertically align</text>
  <text style="stroke:none;fill:black;font-family:-apple-system,&quot;SF Pro Display&quot;,&quot;SF Pro Text&quot;,Helvetica,sans-serif;" transform="matrix(1 0 0 1 263 2007)">symbols with the adjacent text.</text>
  <line id="" style="fill:none;stroke:#00AEEF;stroke-width:0.5;opacity:1.0;" x1="776" x2="776" y1="1919" y2="1933"/>
  <g id="" transform="matrix(1 0 0 1 776 1933)">
   <path d="M3.31055 0.126953C3.82812 0.126953 4.08203-0.0683594 4.26758-0.605469L5.52734-4.0625L11.2891-4.0625L12.5488-0.605469C12.7344-0.0683594 12.9883 0.126953 13.4961 0.126953C14.0137 0.126953 14.3457-0.185547 14.3457-0.673828C14.3457-0.839844 14.3164-0.986328 14.2383-1.20117L9.6582-13.3887C9.43359-13.9941 9.0332-14.2871 8.4082-14.2871C7.80273-14.2871 7.39258-13.9941 7.17773-13.3984L2.59766-1.19141C2.51953-0.976562 2.49023-0.830078 2.49023-0.664062C2.49023-0.175781 2.80273 0.126953 3.31055 0.126953ZM6.00586-5.53711L8.37891-12.1094L8.42773-12.1094L10.8008-5.53711Z"/>
  </g>
  <line id="" style="fill:none;stroke:#00AEEF;stroke-width:0.5;opacity:1.0;" x1="792.836" x2="792.836" y1="1919" y2="1933"/>
  <text style="stroke:none;fill:black;font-family:-apple-system,&quot;SF Pro Display&quot;,&quot;SF Pro Text&quot;,Helvetica,sans-serif;font-weight:bold;" transform="matrix(1 0 0 1 776 1953)">Margins</text>
  <text style="stroke:none;fill:black;font-family:-apple-system,&quot;SF Pro Display&quot;,&quot;SF Pro Text&quot;,Helvetica,sans-serif;" transform="matrix(1 0 0 1 776 1971)">Leading and trailing margins on the left and right side of each symbol</text>
  <text style="stroke:none;fill:black;font-family:-apple-system,&quot;SF Pro Display&quot;,&quot;SF Pro Text&quot;,Helvetica,sans-serif;" transform="matrix(1 0 0 1 776 1989)">can be adjusted by modifying the x-location of the margin guidelines.</text>
  <text style="stroke:none;fill:black;font-family:-apple-system,&quot;SF Pro Display&quot;,&quot;SF Pro Text&quot;,Helvetica,sans-serif;" transform="matrix(1 0 0 1 776 2007)">Modifications are automatically applied proportionally to all</text>
  <text style="stroke:none;fill:black;font-family:-apple-system,&quot;SF Pro Display&quot;,&quot;SF Pro Text&quot;,Helvetica,sans-serif;" transform="matrix(1 0 0 1 776 2025)">scales and weights.</text>
  <g id="" transform="matrix(1 0 0 1 1289 1933)">
   <path d="M2.8418 1.86523L4.54102 3.57422C5.40039 4.44336 6.38672 4.38477 7.31445 3.35938L17.4902-7.85156C17.7539-7.76367 18.0273-7.7832 18.3398-7.8418L19.4043-8.03711L20.0684-7.36328L20.0293-6.80664C19.9902-6.30859 20.1172-5.92773 20.6055-5.44922L21.3672-4.70703C21.8457-4.22852 22.4609-4.19922 22.9297-4.66797L25.8398-7.58789C26.3086-8.05664 26.2891-8.65234 25.8105-9.13086L25.0391-9.89258C24.5605-10.3711 24.1895-10.5273 23.7109-10.4883L23.1348-10.4395L22.4902-11.0742L22.7344-12.1973C22.8613-12.7637 22.7051-13.2031 22.1191-13.7891L19.9219-15.9766C16.582-19.2969 12.1484-19.2188 9.25781-16.3281C8.83789-15.918 8.80859-15.3418 9.04297-14.9512C9.27734-14.5898 9.73633-14.3555 10.3809-14.5215C11.8457-14.8633 13.3691-14.9219 14.7949-13.9844L14.209-12.5293C14.0137-12.0508 13.9844-11.6504 14.1113-11.2891L3.04688-0.898438C2.06055 0.0195312 1.98242 0.996094 2.8418 1.86523ZM10.752-15.957C13.1836-17.7344 16.4746-17.4316 18.7012-15.2051L21.1328-12.793C21.3672-12.5586 21.4062-12.373 21.3379-12.0312L21.0156-10.5469L22.5195-9.0625L23.5059-9.12109C23.7598-9.13086 23.8379-9.11133 24.0332-8.91602L24.6094-8.33984L22.168-5.89844L21.5918-6.47461C21.3965-6.66992 21.3672-6.74805 21.377-7.01172L21.4453-7.98828L19.9512-9.47266L18.4277-9.21875C18.1055-9.15039 17.959-9.17969 17.7148-9.41406L15.7129-11.416C15.459-11.6504 15.4297-11.8164 15.5859-12.1875L16.4648-14.2773C14.9023-15.7324 12.8711-16.3574 10.8398-15.7617C10.6836-15.7227 10.625-15.8496 10.752-15.957ZM5.27344 2.30469L4.10156 1.14258C3.63281 0.683594 3.74023 0.341797 4.14062-0.0195312L14.9512-10.1953L16.416-8.71094L6.42578 2.27539C6.07422 2.67578 5.74219 2.77344 5.27344 2.30469Z"/>
  </g>
  <text style="stroke:none;fill:black;font-family:-apple-system,&quot;SF Pro Display&quot;,&quot;SF Pro Text&quot;,Helvetica,sans-serif;font-weight:bold;" transform="matrix(1 0 0 1 1289 1953)">Exporting</text>
  <text style="stroke:none;fill:black;font-family:-apple-system,&quot;SF Pro Display&quot;,&quot;SF Pro Text&quot;,Helvetica,sans-serif;" transform="matrix(1 0 0 1 1289 1971)">Symbols should be outlined when exporting to ensure the</text>
  <text style="stroke:none;fill:black;font-family:-apple-system,&quot;SF Pro Display&quot;,&quot;SF Pro Text&quot;,Helvetica,sans-serif;" transform="matrix(1 0 0 1 1289 1989)">design is preserved when submitting to Xcode.</text>
  <text id="template-version" style="stroke:none;fill:black;font-family:-apple-system,&quot;SF Pro Display&quot;,&quot;SF Pro Text&quot;,Helvetica,sans-serif;text-anchor:end;" transform="matrix(1 0 0 1 3036 1933)">Template v.2.0</text>
  <text style="stroke:none;fill:black;font-family:-apple-system,&quot;SF Pro Display&quot;,&quot;SF Pro Text&quot;,Helvetica,sans-serif;text-anchor:end;" transform="matrix(1 0 0 1 3036 1951)">Requires Xcode 12 or greater</text>
  <text style="stroke:none;fill:black;font-family:-apple-system,&quot;SF Pro Display&quot;,&quot;SF Pro Text&quot;,Helvetica,sans-serif;text-anchor:end;" transform="matrix(1 0 0 1 3036 1969)">Generated from dollarsign.square.fill</text>
  <text style="stroke:none;fill:black;font-family:-apple-system,&quot;SF Pro Display&quot;,&quot;SF Pro Text&quot;,Helvetica,sans-serif;text-anchor:end;" transform="matrix(1 0 0 1 3036 1987)">Typeset at 100 points</text>
  <text style="stroke:none;fill:black;font-family:-apple-system,&quot;SF Pro Display&quot;,&quot;SF Pro Text&quot;,Helvetica,sans-serif;" transform="matrix(1 0 0 1 263 726)">Small</text>
  <text style="stroke:none;fill:black;font-family:-apple-system,&quot;SF Pro Display&quot;,&quot;SF Pro Text&quot;,Helvetica,sans-serif;" transform="matrix(1 0 0 1 263 1156)">Medium</text>
  <text style="stroke:none;fill:black;font-family:-apple-system,&quot;SF Pro Display&quot;,&quot;SF Pro Text&quot;,Helvetica,sans-serif;" transform="matrix(1 0 0 1 263 1586)">Large</text>
 </g>
 <g id="Guides">
  <g id="H-reference" style="fill:#27AAE1;stroke:none;" transform="matrix(1 0 0 1 339 696)">
   <path d="M0.976562 0L3.66211 0L12.9883-24.4629L45.752-24.4629L55.127 0L57.7637 0L30.6152-70.459L28.125-70.459ZM29.3457-67.1387L29.4434-67.1387L44.873-26.709L13.8672-26.709Z"/>
  </g>
  <line id="Baseline-S" style="fill:none;stroke:#27AAE1;opacity:1;stroke-width:0.5;" x1="263" x2="3036" y1="696" y2="696"/>
  <line id="Capline-S" style="fill:none;stroke:#27AAE1;opacity:1;stroke-width:0.5;" x1="263" x2="3036" y1="625.541" y2="625.541"/>
  <g id="H-reference" style="fill:#27AAE1;stroke:none;" transform="matrix(1 0 0 1 339 1126)">
   <path d="M0.976562 0L3.66211 0L12.9883-24.4629L45.752-24.4629L55.127 0L57.7637 0L30.6152-70.459L28.125-70.459ZM29.3457-67.1387L29.4434-67.1387L44.873-26.709L13.8672-26.709Z"/>
  </g>
  <line id="Baseline-M" style="fill:none;stroke:#27AAE1;opacity:1;stroke-width:0.5;" x1="263" x2="3036" y1="1126" y2="1126"/>
  <line id="Capline-M" style="fill:none;stroke:#27AAE1;opacity:1;stroke-width:0.5;" x1="263" x2="3036" y1="1055.54" y2="1055.54"/>
  <g id="H-reference" style="fill:#27AAE1;stroke:none;" transform="matrix(1 0 0 1 339 1556)">
   <path d="M0.976562 0L3.66211 0L12.9883-24.4629L45.752-24.4629L55.127 0L57.7637 0L30.6152-70.459L28.125-70.459ZM29.3457-67.1387L29.4434-67.1387L44.873-26.709L13.8672-26.709Z"/>
  </g>
  <line id="Baseline-L" style="fill:none;stroke:#27AAE1;opacity:1;stroke-width:0.5;" x1="263" x2="3036" y1="1556" y2="1556"/>
  <line id="Capline-L" style="fill:none;stroke:#27AAE1;opacity:1;stroke-width:0.5;" x1="263" x2="3036" y1="1485.54" y2="1485.54"/>
  <line id="left-margin" style="fill:none;stroke:#00AEEF;stroke-width:0.5;opacity:1.0;" x1="1392.45" x2="1392.45" y1="1030.79" y2="1150.12"/>
  <line id="right-margin" style="fill:none;stroke:#00AEEF;stroke-width:0.5;opacity:1.0;" x1="1507.24" x2="1507.24" y1="1030.79" y2="1150.12"/>
 </g>
 <g id="Symbols">
  <g id="Black-L" transform="matrix(1 0 0 1 2855.62 1556)">
   <path d="M39.9902 26.5137L115.576 26.5137C130.811 26.5137 139.502 17.8711 139.502 2.68555L139.502-73.0957C139.502-88.2812 130.811-96.875 115.576-96.875L39.9902-96.875C24.7559-96.875 16.0645-88.2812 16.0645-73.0957L16.0645 2.68555C16.0645 17.8711 24.7559 26.5137 39.9902 26.5137ZM78.3691 0.683594C76.709 0.683594 75.5859-0.488281 75.5859-2.19727L75.5859-6.05469C64.2578-6.68945 58.1055-11.9629 56.1035-17.2852C55.5664-18.4082 55.4199-19.4824 55.4199-20.459C55.4199-24.2676 57.959-26.9043 62.4023-26.9043C65.6738-26.9043 67.8223-25.293 69.3359-22.4121C70.3125-20.2637 72.168-18.6523 75.5859-18.1641L75.5859-28.9551L72.5586-29.6387C61.2793-32.0801 55.2246-37.2559 55.2246-46.6309C55.2246-56.9336 63.6719-63.6719 75.5859-64.4531L75.5859-68.5547C75.5859-70.3125 76.709-71.4355 78.3691-71.4355C79.9805-71.4355 81.1523-70.3125 81.1523-68.5547L81.1523-64.4531C91.4062-63.5742 97.9004-58.6426 99.8535-52.6367C100.146-51.6602 100.391-50.5859 100.391-49.6094C100.391-46.1426 97.7539-43.75 93.7012-43.75C90.5762-43.75 88.3789-45.2148 86.5723-48.0957C85.4004-50.2441 83.6914-51.6602 81.1523-52.1973L81.1523-41.8457L84.3262-41.1621C96.0938-38.8184 101.953-33.7402 101.953-24.3652C101.953-13.8184 93.6035-7.08008 81.1523-6.10352L81.1523-2.19727C81.1523-0.488281 79.9805 0.683594 78.3691 0.683594ZM75.5859-43.1641L75.5859-52.4414C72.168-52.0508 70.1172-50.293 70.1172-47.9004C70.1172-45.6055 71.7773-44.043 75.0977-43.2617ZM81.1523-27.7344L81.1523-18.1641C85.0586-18.6523 87.1094-20.2637 87.1094-22.9004C87.1094-25.293 85.6934-26.6602 81.8848-27.5391Z"/>
  </g>
  <g id="Heavy-L" transform="matrix(1 0 0 1 2559.93 1556)">
   <path d="M38.8184 25.4883L114.697 25.4883C129.346 25.4883 137.451 17.4316 137.451 2.88086L137.451-73.2422C137.451-87.793 129.346-95.8496 114.697-95.8496L38.8184-95.8496C24.2188-95.8496 16.0645-87.793 16.0645-73.2422L16.0645 2.88086C16.0645 17.4316 24.2188 25.4883 38.8184 25.4883ZM77.2461 0.830078C75.5859 0.830078 74.4629-0.341797 74.4629-2.05078L74.4629-6.10352C63.7207-6.73828 57.3242-11.9629 55.3711-17.7734C54.9316-18.7988 54.7852-19.7754 54.7852-20.6543C54.7852-24.0234 57.0801-26.416 60.9375-26.416C63.8184-26.416 65.7715-24.9023 67.041-22.2656C68.0176-19.5312 70.3613-17.4316 74.4629-16.8457L74.4629-29.8828L71.9727-30.4199C60.8887-32.8613 54.9316-37.9395 54.9316-46.9727C54.9316-56.8848 63.0859-63.4766 74.4629-64.3066L74.4629-68.5059C74.4629-70.2148 75.5859-71.3379 77.2461-71.3379C78.8086-71.3379 80.0293-70.2148 80.0293-68.5059L80.0293-64.3066C89.8438-63.4277 96.3379-58.4961 98.1934-52.2949C98.4863-51.416 98.6816-50.4395 98.6816-49.5117C98.6816-46.4355 96.3379-44.2871 92.7734-44.2871C89.9414-44.2871 87.9883-45.6543 86.5234-48.2422C85.3516-51.0254 83.1543-52.832 80.0293-53.3691L80.0293-41.0156L82.7148-40.4297C94.3359-38.1348 100.098-33.0566 100.098-23.877C100.098-13.623 91.8945-7.08008 80.0293-6.10352L80.0293-2.05078C80.0293-0.341797 78.8086 0.830078 77.2461 0.830078ZM74.4629-42.334L74.4629-53.5645C70.459-53.0762 67.9688-50.8789 67.9688-48.0469C67.9688-45.3125 69.9707-43.5059 73.9746-42.4805ZM80.0293-28.6133L80.0293-16.8457C84.6191-17.4316 87.1094-19.5312 87.1094-22.7051C87.1094-25.5859 85.4004-27.2461 80.8594-28.3691Z"/>
  </g>
  <g id="Bold-L" transform="matrix(1 0 0 1 2264.37 1556)">
   <path d="M37.5 24.3652L113.721 24.3652C127.637 24.3652 135.156 16.8945 135.156 3.07617L135.156-73.3887C135.156-87.207 127.637-94.7266 113.721-94.7266L37.5-94.7266C23.6328-94.7266 16.0645-87.2559 16.0645-73.3887L16.0645 3.07617C16.0645 16.8945 23.6328 24.3652 37.5 24.3652ZM75.9277 0.976562C74.3164 0.976562 73.1445-0.146484 73.1445-1.85547L73.1445-6.15234C63.0859-6.88477 56.4453-11.9629 54.5898-18.3594C54.248-19.2383 54.1016-20.0684 54.1016-20.8496C54.1016-23.7793 56.1035-25.7812 59.2773-25.7812C61.7676-25.7812 63.4277-24.5117 64.502-22.0703C65.4785-18.6523 68.3594-16.0645 73.1445-15.4297L73.1445-30.8594L71.3379-31.25C60.4004-33.7402 54.6387-38.7695 54.6387-47.4121C54.6387-56.8359 62.4023-63.2324 73.1445-64.1113L73.1445-68.4082C73.1445-70.1172 74.3164-71.2402 75.9277-71.2402C77.5391-71.2402 78.7109-70.0684 78.7109-68.4082L78.7109-64.1113C88.0371-63.2812 94.5801-58.3496 96.3379-51.9531C96.582-51.123 96.7285-50.293 96.7285-49.4629C96.7285-46.7285 94.7266-44.873 91.748-44.873C89.2578-44.873 87.5977-46.1426 86.4258-48.4375C85.2539-51.8555 82.5684-54.0527 78.7109-54.6875L78.7109-40.0879L80.8594-39.6484C92.2852-37.4023 97.998-32.2754 97.998-23.3887C97.998-13.3789 89.9902-7.08008 78.7109-6.15234L78.7109-1.85547C78.7109-0.146484 77.5391 0.976562 75.9277 0.976562ZM73.1445-41.4551L73.1445-54.834C68.5547-54.1992 65.5762-51.5625 65.5762-48.1934C65.5762-44.9707 67.9199-42.8711 72.7051-41.5527ZM78.7109-29.541L78.7109-15.4297C84.1797-16.0156 87.1094-18.7012 87.1094-22.4609C87.1094-25.8789 85.0586-27.9785 79.7852-29.2969Z"/>
  </g>
  <g id="Semibold-L" transform="matrix(1 0 0 1 1968.44 1556)">
   <path d="M36.6211 23.584L113.037 23.584C126.514 23.584 133.594 16.5039 133.594 3.17383L133.594-73.5352C133.594-86.8164 126.514-93.9453 113.037-93.9453L36.6211-93.9453C23.1934-93.9453 16.0645-86.8652 16.0645-73.5352L16.0645 3.17383C16.0645 16.5527 23.1934 23.584 36.6211 23.584ZM75.0488 1.07422C73.4375 1.07422 72.2656-0.0488281 72.2656-1.70898L72.2656-6.20117C62.6465-6.93359 55.8594-11.9141 54.0527-18.7012C53.7598-19.5312 53.6621-20.2637 53.6621-21.0449C53.6621-23.584 55.4199-25.3906 58.1055-25.3906C60.3516-25.3906 61.8164-24.2188 62.6953-21.9727C63.6719-18.0664 66.9434-15.1367 72.2656-14.4531L72.2656-31.543L70.8984-31.8848C60.0586-34.375 54.4434-39.3066 54.4434-47.6562C54.4434-56.7871 61.9141-63.0859 72.2656-64.0137L72.2656-68.3594C72.2656-70.0195 73.4375-71.1426 75.0488-71.1426C76.6113-71.1426 77.832-70.0195 77.832-68.3594L77.832-64.0137C86.7676-63.1348 93.3594-58.252 95.0684-51.6602C95.2637-50.9277 95.4102-50.1465 95.4102-49.4141C95.4102-46.9727 93.6523-45.2637 91.0156-45.2637C88.7695-45.2637 87.3047-46.4844 86.377-48.584C85.2051-52.4414 82.1777-54.9316 77.832-55.6152L77.832-39.4531L79.6387-39.0625C90.918-36.9141 96.582-31.7871 96.582-22.998C96.582-13.2324 88.6719-7.08008 77.832-6.15234L77.832-1.70898C77.832-0.0488281 76.6113 1.07422 75.0488 1.07422ZM72.2656-40.8203L72.2656-55.6641C67.2363-54.9805 63.9648-52.0508 63.9648-48.291C63.9648-44.7266 66.5039-42.4316 71.8262-40.9668ZM77.832-30.2246L77.832-14.4531C83.8379-15.0391 87.0605-18.1152 87.0605-22.3145C87.0605-26.0742 84.8633-28.418 79.0039-29.9316Z"/>
  </g>
  <g id="Medium-L" transform="matrix(1 0 0 1 1672.31 1556)">
   <path d="M35.9375 22.998L112.5 22.998C125.635 22.998 132.422 16.2109 132.422 3.27148L132.422-73.6328C132.422-86.5234 125.635-93.3105 112.5-93.3105L35.9375-93.3105C22.9004-93.3105 16.0645-86.5723 16.0645-73.6328L16.0645 3.27148C16.0645 16.2598 22.9004 22.998 35.9375 22.998ZM74.3652 1.17188C72.8027 1.17188 71.582 0.0488281 71.582-1.61133L71.582-6.25C62.3535-6.98242 55.4199-11.9141 53.6133-18.9941C53.418-19.7266 53.2715-20.459 53.2715-21.1426C53.2715-23.4863 54.8828-25.0977 57.2754-25.0977C59.2773-25.0977 60.5957-24.0234 61.377-21.875C62.3535-17.5781 65.8691-14.4043 71.582-13.7207L71.582-32.0801L70.5566-32.3242C59.8145-34.8145 54.248-39.6973 54.248-47.9004C54.248-56.7871 61.5723-62.9883 71.582-63.916L71.582-68.3105C71.582-69.9707 72.7539-71.0938 74.3652-71.0938C75.9766-71.0938 77.1484-69.9707 77.1484-68.3105L77.1484-63.916C85.8398-63.0371 92.4316-58.2031 94.0918-51.4648C94.2871-50.7812 94.4336-50.0977 94.4336-49.3652C94.4336-47.1191 92.8223-45.5566 90.4785-45.5566C88.3789-45.5566 87.1094-46.7285 86.3281-48.6816C85.1562-52.8809 81.8359-55.6152 77.1484-56.2988L77.1484-38.9648L78.6621-38.6719C89.8438-36.5234 95.459-31.3965 95.459-22.7539C95.459-13.1348 87.6953-7.08008 77.1484-6.20117L77.1484-1.61133C77.1484 0.0488281 75.9766 1.17188 74.3652 1.17188ZM71.582-40.3809L71.582-56.3477C66.2109-55.5664 62.6953-52.3926 62.6953-48.3887C62.6953-44.5312 65.4297-42.0898 71.1914-40.4785ZM77.1484-30.7129L77.1484-13.7207C83.5938-14.3066 87.0605-17.6758 87.0605-22.2168C87.0605-26.2207 84.668-28.8086 78.418-30.4199Z"/>
  </g>
  <g id="Regular-L" transform="matrix(1 0 0 1 1376.38 1556)">
   <path d="M35.0586 22.2168L111.816 22.2168C124.463 22.2168 130.859 15.8691 130.859 3.41797L130.859-73.7305C130.859-86.1816 124.463-92.5293 111.816-92.5293L35.0586-92.5293C22.4609-92.5293 16.0645-86.2305 16.0645-73.7305L16.0645 3.41797C16.0645 15.918 22.4609 22.2168 35.0586 22.2168ZM73.4863 1.26953C71.9238 1.26953 70.752 0.146484 70.752-1.46484L70.752-6.29883C61.9141-7.08008 54.834-11.9141 53.0762-19.3848C52.9297-20.0195 52.832-20.6543 52.832-21.2891C52.832-23.291 54.1992-24.707 56.1035-24.707C57.8613-24.707 59.0332-23.7305 59.6191-21.7773C60.5957-16.9922 64.502-13.4766 70.752-12.7441L70.752-32.7637L70.166-32.9102C59.5215-35.4492 54.0527-40.2344 54.0527-48.1445C54.0527-56.7383 61.1328-62.793 70.752-63.7695L70.752-68.2617C70.752-69.9219 71.875-70.9961 73.4863-70.9961C75.0488-70.9961 76.2695-69.873 76.2695-68.2617L76.2695-63.7695C84.6191-62.9395 91.2109-58.1055 92.8223-51.2207C92.9688-50.5859 93.1152-49.9512 93.1152-49.3164C93.1152-47.3633 91.6992-45.9473 89.7461-45.9473C87.8906-45.9473 86.8164-47.0703 86.2793-48.8281C85.1074-53.418 81.4453-56.4453 76.2695-57.1777L76.2695-38.3301L77.4414-38.1348C88.4766-35.9863 94.043-30.8594 94.043-22.4121C94.043-12.9883 86.377-7.08008 76.2695-6.20117L76.2695-1.46484C76.2695 0.146484 75.0488 1.26953 73.4863 1.26953ZM70.752-39.7461L70.752-57.1777C64.8926-56.3477 61.084-52.832 61.084-48.4863C61.084-44.2871 64.0137-41.6504 70.3125-39.8926ZM76.2695-31.3965L76.2695-12.7441C83.3008-13.3789 87.0605-17.0898 87.0605-22.0215C87.0605-26.416 84.4727-29.248 77.6367-31.0059Z"/>
  </g>
  <g id="Light-L" transform="matrix(1 0 0 1 1080.5 1556)">
   <path d="M34.0332 21.4355L111.23 21.4355C123.096 21.4355 129.199 15.2344 129.199 3.56445L129.199-73.8281C129.199-85.5469 123.096-91.6992 111.23-91.6992L34.0332-91.6992C22.168-91.6992 16.0645-85.6445 16.0645-73.8281L16.0645 3.56445C16.0645 15.3809 22.168 21.4355 34.0332 21.4355ZM72.6562 0.488281C71.3379 0.488281 70.3613-0.439453 70.3613-1.80664L70.3613-6.83594C61.377-7.51953 54.4922-12.5488 52.8809-19.9707C52.7344-20.5078 52.6367-21.0938 52.6367-21.6797C52.6367-23.3398 53.7598-24.4629 55.2734-24.4629C56.7383-24.4629 57.666-23.6328 58.0566-22.0215C58.9355-16.6016 63.5254-12.7441 70.3613-12.0605L70.3613-33.3008L69.5801-33.4473C59.1309-35.9375 53.9062-40.5762 53.9062-48.0469C53.9062-56.25 60.9863-62.1582 70.3613-62.9883L70.3613-67.4316C70.3613-68.8477 71.2891-69.7266 72.6562-69.7266C73.9746-69.7266 75-68.7988 75-67.4316L75-62.9883C83.3984-62.2559 89.8926-57.4219 91.4062-50.7812C91.5039-50.1953 91.6504-49.6094 91.6504-49.0234C91.6504-47.4121 90.5273-46.2891 88.9648-46.2891C87.4023-46.2891 86.5723-47.2168 86.1816-48.7305C85.1074-53.6133 80.8594-57.0312 75-57.666L75-37.7441L76.5137-37.4023C87.3535-35.2051 92.627-30.3223 92.627-22.3145C92.627-13.4766 85.2539-7.51953 75-6.73828L75-1.80664C75-0.488281 73.9746 0.488281 72.6562 0.488281ZM70.3613-38.916L70.3613-57.666C64.0137-56.9824 59.4727-53.1738 59.4727-48.2422C59.4727-43.6035 62.9883-40.8203 69.9707-39.0137ZM75-32.1289L75-12.0605C82.5684-12.5977 87.0605-16.6992 87.0605-22.1191C87.0605-26.9531 83.9355-29.9316 76.3672-31.7871Z"/>
  </g>
  <g id="Thin-L" transform="matrix(1 0 0 1 784.889 1556)">
   <path d="M32.666 20.3613L110.352 20.3613C121.24 20.3613 127.002 14.4531 127.002 3.75977L127.002-73.9746C127.002-84.7168 121.24-90.5762 110.352-90.5762L32.666-90.5762C21.7773-90.5762 16.0645-84.8633 16.0645-73.9746L16.0645 3.75977C16.0645 14.6484 21.7773 20.3613 32.666 20.3613ZM71.5332-0.585938C70.5566-0.585938 69.873-1.2207 69.873-2.24609L69.873-7.56836C60.6445-8.10547 54.0039-13.3301 52.5879-20.7031C52.4902-21.1914 52.3926-21.6797 52.3926-22.168C52.3926-23.4375 53.1738-24.1699 54.1504-24.1699C55.3223-24.1699 55.8594-23.4863 56.0059-22.3145C56.7383-16.1133 62.2559-11.7188 69.873-11.1328L69.873-33.9844L68.7988-34.1797C58.6914-36.5723 53.7109-41.0156 53.7109-47.8516C53.7109-55.5664 60.8398-61.3281 69.873-61.9141L69.873-66.3574C69.873-67.4316 70.5078-68.0664 71.5332-68.0664C72.5098-68.0664 73.291-67.334 73.291-66.3574L73.291-61.9141C81.7383-61.377 88.1836-56.4941 89.502-50.1465C89.5996-49.6582 89.6973-49.1211 89.6973-48.6328C89.6973-47.4609 88.9648-46.7285 87.8418-46.7285C86.7676-46.7285 86.2305-47.3633 85.9863-48.584C85.1562-53.8574 80.127-57.7637 73.291-58.252L73.291-36.9141L75.3418-36.4746C85.791-34.1309 90.7227-29.6387 90.7227-22.2656C90.7227-14.1602 83.7402-8.10547 73.291-7.4707L73.291-2.24609C73.291-1.26953 72.5098-0.585938 71.5332-0.585938ZM69.873-37.7441L69.873-58.252C62.8906-57.7637 57.4219-53.5645 57.4219-47.9004C57.4219-42.6758 61.5723-39.7461 69.5312-37.8418ZM73.291-33.1543L73.291-11.1328C81.543-11.5723 87.1094-16.1133 87.1094-22.2168C87.1094-27.6855 83.252-30.8594 74.6582-32.8125Z"/>
  </g>
  <g id="Ultralight-L" transform="matrix(1 0 0 1 488.739 1556)">
   <path d="M31.9824 19.7754L109.961 19.7754C120.312 19.7754 125.879 14.0625 125.879 3.85742L125.879-74.0723C125.879-84.2773 120.312-89.9902 109.961-89.9902L31.9824-89.9902C21.582-89.9902 16.0645-84.4727 16.0645-74.0723L16.0645 3.85742C16.0645 14.2578 21.582 19.7754 31.9824 19.7754ZM70.9961-1.12305C70.166-1.12305 69.5801-1.61133 69.5801-2.49023L69.5801-7.95898C60.3027-8.39844 53.7598-13.7695 52.4414-21.0449C52.3926-21.5332 52.2949-21.9727 52.2949-22.4609C52.2949-23.4863 52.832-24.0234 53.6133-24.0234C54.5898-24.0234 54.9805-23.3887 54.9805-22.4609C55.5664-15.8203 61.6211-11.2305 69.5801-10.6934L69.5801-34.3262L68.4082-34.5703C58.4473-36.8652 53.5645-41.2598 53.5645-47.7539C53.5645-55.2246 60.7422-60.8887 69.5801-61.377L69.5801-65.8203C69.5801-66.6992 70.0684-67.1875 70.9961-67.1875C71.7773-67.1875 72.4609-66.6016 72.4609-65.8203L72.4609-61.377C80.9082-60.9375 87.3047-56.0547 88.5742-49.8535C88.623-49.3652 88.7207-48.9258 88.7207-48.4375C88.7207-47.5098 88.1348-46.9727 87.3047-46.9727C86.4746-46.9727 86.0352-47.4609 85.9375-48.4863C85.1562-54.0039 79.7363-58.1055 72.4609-58.5938L72.4609-36.5234L74.7559-35.9863C85.0098-33.5449 89.7461-29.2969 89.7461-22.2168C89.7461-14.5508 82.959-8.39844 72.4609-7.86133L72.4609-2.49023C72.4609-1.70898 71.7773-1.12305 70.9961-1.12305ZM69.5801-37.1582L69.5801-58.5938C62.2559-58.1543 56.3477-53.8086 56.3477-47.7539C56.3477-42.1875 60.8398-39.1602 69.2871-37.207ZM72.4609-33.6914L72.4609-10.6934C81.0547-11.0352 87.1094-15.8203 87.1094-22.2656C87.1094-28.0273 82.9102-31.2988 73.8281-33.3496Z"/>
  </g>
  <g id="Black-M" transform="matrix(1 0 0 1 2872.19 1126)">
   <path d="M31.9824 13.5742L90.4297 13.5742C102.686 13.5742 109.961 6.29883 109.961-5.95703L109.961-64.4043C109.961-76.6602 102.686-83.9355 90.4297-83.9355L31.9824-83.9355C19.7266-83.9355 12.4512-76.6602 12.4512-64.4043L12.4512-5.95703C12.4512 6.29883 19.7266 13.5742 31.9824 13.5742ZM61.8652-8.00781C60.6934-8.00781 59.9609-8.83789 59.9609-10.0586L59.9609-12.8418C50.2441-13.1836 45.8496-17.5293 44.3359-20.9473C43.7988-21.9727 43.7012-22.9004 43.7012-23.7305C43.7012-27.0508 45.8984-29.3945 49.9023-29.3945C52.832-29.3945 54.6387-27.9297 56.0059-25.6348C56.6895-24.4629 57.8613-23.6328 59.9609-23.3398L59.9609-29.4434L56.6895-30.1758C47.9004-31.9336 43.0664-35.9863 43.0664-43.5059C43.0664-51.8066 50.0977-57.1777 59.9609-57.666L59.9609-60.7422C59.9609-61.9629 60.6934-62.7441 61.8652-62.7441C62.9395-62.7441 63.7695-61.9629 63.7695-60.7422L63.7695-57.666C72.3633-57.0801 77.3438-53.1738 78.8086-48.9258C79.1504-48.0957 79.3457-47.168 79.3457-46.2891C79.3457-43.3105 77.0508-41.3086 73.4375-41.3086C70.8008-41.3086 68.8477-42.4316 67.1387-44.873C66.3086-45.9473 65.2832-46.7285 63.7695-47.0703L63.7695-41.1133L67.0898-40.4297C76.3184-38.4766 80.8105-34.668 80.8105-27.3926C80.8105-19.1406 74.2188-13.6719 63.7695-12.8906L63.7695-10.0586C63.7695-8.83789 62.9395-8.00781 61.8652-8.00781ZM59.9609-41.9922L59.9609-47.3145C57.8125-47.2168 56.3965-46.2402 56.3965-44.7266C56.3965-43.3105 57.5684-42.3828 59.5703-42.041ZM63.7695-28.6621L63.7695-23.3398C66.0645-23.6328 67.5781-24.4141 67.5781-25.9766C67.5781-27.4414 66.5039-28.125 64.1113-28.6133Z"/>
  </g>
  <g id="Heavy-M" transform="matrix(1 0 0 1 2576.39 1126)">
   <path d="M31.0059 12.6465L89.6484 12.6465C101.416 12.6465 108.154 5.9082 108.154-5.81055L108.154-64.5508C108.154-76.2695 101.416-83.0566 89.6484-83.0566L31.0059-83.0566C19.2383-83.0566 12.4512-76.3184 12.4512-64.5508L12.4512-5.81055C12.4512 5.9082 19.2383 12.6465 31.0059 12.6465ZM60.791-7.66602C59.5703-7.66602 58.7891-8.49609 58.7891-9.76562L58.7891-12.7441C49.8047-13.1836 45.1172-17.3828 43.6035-21.3379C43.1641-22.2656 43.0664-23.0957 43.0664-23.8281C43.0664-26.8066 45.0195-28.8574 48.5352-28.8574C51.0742-28.8574 52.7344-27.5879 53.9062-25.3906C54.6387-23.7305 56.1523-22.5098 58.7891-22.1191L58.7891-30.2734L56.2012-30.8594C47.5098-32.7148 42.8223-36.7188 42.8223-43.9453C42.8223-51.9043 49.4629-57.1289 58.7891-57.7148L58.7891-60.8398C58.7891-62.1582 59.5703-62.9883 60.791-62.9883C61.9629-62.9883 62.8418-62.1582 62.8418-60.8398L62.8418-57.7148C70.8984-57.0801 75.9277-53.2227 77.3926-48.6816C77.6855-47.9492 77.832-47.0703 77.832-46.2891C77.832-43.6523 75.8301-41.7969 72.6074-41.7969C70.2148-41.7969 68.5059-42.8711 67.0898-45.1172C66.2109-46.7285 64.8438-47.8516 62.8418-48.2422L62.8418-40.3809L65.5273-39.7949C74.6094-37.9395 79.1016-34.082 79.1016-26.9043C79.1016-18.7988 72.6562-13.5254 62.8418-12.793L62.8418-9.76562C62.8418-8.49609 61.9629-7.66602 60.791-7.66602ZM58.7891-41.3086L58.7891-48.4375C56.1523-48.1445 54.4434-46.8262 54.4434-44.9219C54.4434-43.1641 55.8105-41.9922 58.3984-41.4062ZM62.8418-29.3945L62.8418-22.1191C65.8203-22.5098 67.5293-23.7305 67.5293-25.7812C67.5293-27.6367 66.3086-28.6133 63.3789-29.2969Z"/>
  </g>
  <g id="Bold-M" transform="matrix(1 0 0 1 2280.68 1126)">
   <path d="M29.8828 11.6699L88.7207 11.6699C99.9512 11.6699 106.152 5.46875 106.152-5.66406L106.152-64.6973C106.152-75.8789 99.9512-82.0312 88.7207-82.0312L29.8828-82.0312C18.6523-82.0312 12.4512-75.8789 12.4512-64.6973L12.4512-5.66406C12.4512 5.51758 18.6523 11.6699 29.8828 11.6699ZM59.6191-7.22656C58.3496-7.22656 57.4707-8.1543 57.4707-9.47266L57.4707-12.6465C49.2676-13.1836 44.2871-17.1875 42.7734-21.7773C42.4805-22.5586 42.334-23.291 42.334-23.9746C42.334-26.5137 44.043-28.2715 46.9238-28.2715C49.1211-28.2715 50.5859-27.1484 51.5625-25.1465C52.2949-22.9004 54.1992-21.2402 57.4707-20.752L57.4707-31.25L55.6641-31.6406C47.1191-33.5449 42.5293-37.4512 42.5293-44.4336C42.5293-52.002 48.7793-57.0801 57.4707-57.7637L57.4707-60.9863C57.4707-62.3535 58.3496-63.2324 59.6191-63.2324C60.8887-63.2324 61.8164-62.3047 61.8164-60.9863L61.8164-57.7637C69.3359-57.0801 74.3652-53.2715 75.7812-48.3887C76.0254-47.7539 76.1719-47.0215 76.1719-46.2891C76.1719-43.9453 74.4141-42.334 71.7285-42.334C69.5801-42.334 68.1152-43.4082 67.041-45.3613C66.1133-47.6074 64.3555-49.0723 61.8164-49.5117L61.8164-39.5508L63.7695-39.1602C72.7539-37.4023 77.2461-33.3984 77.2461-26.3672C77.2461-18.4082 70.8984-13.3789 61.8164-12.6465L61.8164-9.47266C61.8164-8.1543 60.8887-7.22656 59.6191-7.22656ZM57.4707-40.625L57.4707-49.6582C54.2969-49.2188 52.2949-47.4609 52.2949-45.166C52.2949-42.9688 53.9062-41.5527 57.1289-40.6738ZM61.8164-30.2246L61.8164-20.752C65.5273-21.1914 67.5293-22.9004 67.5293-25.4883C67.5293-27.7832 66.1133-29.1504 62.5-30.0781Z"/>
  </g>
  <g id="Semibold-M" transform="matrix(1 0 0 1 1984.65 1126)">
   <path d="M29.1016 10.9863L88.0859 10.9863C98.9746 10.9863 104.785 5.17578 104.785-5.56641L104.785-64.8438C104.785-75.5859 98.9746-81.3477 88.0859-81.3477L29.1016-81.3477C18.2617-81.3477 12.4512-75.5859 12.4512-64.8438L12.4512-5.56641C12.4512 5.22461 18.2617 10.9863 29.1016 10.9863ZM58.8379-6.98242C57.5195-6.98242 56.5918-7.91016 56.5918-9.27734L56.5918-12.5977C48.9258-13.1836 43.7012-17.041 42.2363-22.1191C41.9922-22.8027 41.8457-23.4375 41.8457-24.0723C41.8457-26.3184 43.4082-27.8809 45.8496-27.8809C47.8027-27.8809 49.0723-26.9043 49.9023-24.9512C50.6836-22.3145 52.8809-20.3613 56.5918-19.8242L56.5918-31.8848L55.3223-32.1777C46.8262-34.1309 42.334-37.9883 42.334-44.7266C42.334-52.0996 48.291-57.0312 56.5918-57.7637L56.5918-61.084C56.5918-62.4512 57.5195-63.3789 58.8379-63.3789C60.1074-63.3789 61.084-62.4512 61.084-61.084L61.084-57.7637C68.2129-57.0801 73.291-53.2715 74.707-48.1934C74.8535-47.6074 75-46.9238 75-46.2891C75-44.1895 73.4375-42.7246 71.0938-42.7246C69.1406-42.7246 67.8711-43.75 66.9922-45.5566C66.0645-48.1934 64.0137-49.9023 61.084-50.4395L61.084-38.9648L62.5977-38.6719C71.4844-36.9629 75.9277-32.959 75.9277-25.9766C75.9277-18.1641 69.7266-13.3301 61.084-12.5977L61.084-9.27734C61.084-7.91016 60.1074-6.98242 58.8379-6.98242ZM56.5918-40.0879L56.5918-50.4883C53.0273-50 50.8301-47.9004 50.8301-45.3613C50.8301-42.8711 52.5391-41.2598 56.25-40.1855ZM61.084-30.8105L61.084-19.8242C65.332-20.3125 67.4805-22.3633 67.4805-25.293C67.4805-27.9297 66.0156-29.541 61.9141-30.6152Z"/>
  </g>
  <g id="Medium-M" transform="matrix(1 0 0 1 1688.47 1126)">
   <path d="M28.5156 10.4492L87.6465 10.4492C98.2422 10.4492 103.711 4.98047 103.711-5.46875L103.711-64.8926C103.711-75.3418 98.2422-80.8105 87.6465-80.8105L28.5156-80.8105C17.9688-80.8105 12.4512-75.3906 12.4512-64.8926L12.4512-5.46875C12.4512 4.98047 17.9688 10.4492 28.5156 10.4492ZM58.2031-6.73828C56.8848-6.73828 55.9082-7.71484 55.9082-9.08203L55.9082-12.5488C48.6328-13.1348 43.2617-16.9434 41.7969-22.3145C41.6016-22.9492 41.5039-23.5352 41.5039-24.1211C41.5039-26.1719 42.9199-27.5879 45.0195-27.5879C46.7773-27.5879 47.998-26.6602 48.6816-24.8535C49.5117-21.875 51.8555-19.6777 55.9082-19.0918L55.9082-32.373L55.0293-32.5684C46.582-34.5215 42.1875-38.4277 42.1875-45.0195C42.1875-52.1484 47.9004-57.0312 55.9082-57.7637L55.9082-61.1816C55.9082-62.5977 56.8848-63.5254 58.2031-63.5254C59.5215-63.5254 60.5469-62.5488 60.5469-61.1816L60.5469-57.7637C67.3828-57.0801 72.5098-53.3203 73.877-48.0957C74.0234-47.5098 74.1211-46.9238 74.1211-46.3379C74.1211-44.3848 72.7051-42.9688 70.6543-42.9688C68.8477-42.9688 67.6758-43.9941 66.9434-45.6543C65.9668-48.6328 63.7695-50.5371 60.5469-51.123L60.5469-38.5742L61.6699-38.3301C70.5078-36.6699 74.9512-32.6172 74.9512-25.6836C74.9512-17.9688 68.7988-13.2324 60.5469-12.5L60.5469-9.08203C60.5469-7.71484 59.5215-6.73828 58.2031-6.73828ZM55.9082-39.7461L55.9082-51.1719C52.0508-50.5371 49.707-48.2422 49.707-45.5078C49.707-42.7734 51.5625-41.0156 55.5664-39.8438ZM60.5469-31.25L60.5469-19.0918C65.1855-19.6289 67.4805-21.9727 67.4805-25.1465C67.4805-27.9785 65.8691-29.834 61.4746-31.0059Z"/>
  </g>
  <g id="Regular-M" transform="matrix(1 0 0 1 1392.45 1126)">
   <path d="M27.7832 9.76562L87.0117 9.76562C97.2656 9.76562 102.344 4.6875 102.344-5.37109L102.344-64.9902C102.344-75.0488 97.2656-80.127 87.0117-80.127L27.7832-80.127C17.5781-80.127 12.4512-75.0977 12.4512-64.9902L12.4512-5.37109C12.4512 4.73633 17.5781 9.76562 27.7832 9.76562ZM57.4219-6.49414C56.0547-6.49414 55.0293-7.4707 55.0293-8.88672L55.0293-12.5C48.291-13.1348 42.6758-16.8457 41.2598-22.6562C41.1133-23.1445 41.0156-23.6816 41.0156-24.2188C41.0156-25.9766 42.2363-27.1973 43.9453-27.1973C45.459-27.1973 46.5332-26.416 47.0703-24.6582C47.9004-21.3379 50.5371-18.7988 55.0293-18.1641L55.0293-33.0078L54.6875-33.1055C46.2891-35.1074 41.9922-38.916 41.9922-45.3125C41.9922-52.1973 47.4121-56.9824 55.0293-57.8125L55.0293-61.2793C55.0293-62.6953 56.0547-63.6719 57.4219-63.6719C58.7891-63.6719 59.8633-62.6953 59.8633-61.2793L59.8633-57.8125C66.3086-57.0801 71.4355-53.3203 72.7539-47.9004C72.8516-47.3633 72.998-46.8262 72.998-46.3379C72.998-44.5801 71.7285-43.3594 70.0195-43.3594C68.4082-43.3594 67.4316-44.3359 66.9434-45.8496C65.918-49.2188 63.4277-51.3672 59.8633-52.002L59.8633-37.9883L60.498-37.8418C69.2383-36.2793 73.6816-32.1289 73.6816-25.293C73.6816-17.6758 67.627-13.1348 59.8633-12.4023L59.8633-8.88672C59.8633-7.4707 58.7891-6.49414 57.4219-6.49414ZM55.0293-39.2578L55.0293-52.002C50.7812-51.2695 48.2422-48.6816 48.2422-45.6543C48.2422-42.6758 50.2441-40.6738 54.6875-39.3555ZM59.8633-31.8359L59.8633-18.1641C64.9902-18.75 67.4805-21.4355 67.4805-24.9512C67.4805-28.125 65.7715-30.2246 60.8887-31.543Z"/>
  </g>
  <g id="Light-M" transform="matrix(1 0 0 1 1096.47 1126)">
   <path d="M26.8555 9.0332L86.4746 9.0332C95.9961 9.0332 100.879 4.15039 100.879-5.22461L100.879-65.0879C100.879-74.5117 95.9961-79.3945 86.4746-79.3945L26.8555-79.3945C17.334-79.3945 12.4512-74.5605 12.4512-65.0879L12.4512-5.22461C12.4512 4.19922 17.334 9.0332 26.8555 9.0332ZM56.6895-7.17773C55.5176-7.17773 54.6875-8.00781 54.6875-9.17969L54.6875-12.9883C47.8027-13.5254 42.3828-17.3828 41.0645-23.1445C40.9668-23.584 40.8691-24.0723 40.8691-24.5605C40.8691-26.0254 41.8457-27.002 43.2129-27.002C44.4824-27.002 45.3125-26.2695 45.6543-24.8535C46.3867-20.9961 49.6582-18.1152 54.6875-17.5781L54.6875-33.4961L54.1504-33.5938C45.9961-35.5469 41.8457-39.209 41.8457-45.2148C41.8457-51.7578 47.3145-56.3965 54.6875-57.0801L54.6875-60.5469C54.6875-61.7676 55.5176-62.5488 56.6895-62.5488C57.8125-62.5488 58.6914-61.7188 58.6914-60.5469L58.6914-57.0801C65.1855-56.4941 70.2637-52.7344 71.4844-47.4609C71.582-47.0215 71.6797-46.5332 71.6797-46.0449C71.6797-44.6289 70.7031-43.6523 69.2871-43.6523C67.9688-43.6523 67.1875-44.4336 66.7969-45.752C65.918-49.4141 62.9395-51.8555 58.6914-52.3926L58.6914-37.4512L59.7168-37.2559C68.1641-35.5469 72.4121-31.6895 72.4121-25.2441C72.4121-18.1641 66.5527-13.5254 58.6914-12.9395L58.6914-9.17969C58.6914-8.00781 57.8125-7.17773 56.6895-7.17773ZM54.6875-38.4766L54.6875-52.3926C50-51.8066 46.8262-48.9746 46.8262-45.4102C46.8262-42.041 49.2676-39.9414 54.3457-38.5742ZM58.6914-32.5195L58.6914-17.5781C64.3066-18.0176 67.4805-21.0449 67.4805-25.0488C67.4805-28.6133 65.2832-30.8105 59.7656-32.2266Z"/>
  </g>
  <g id="Thin-M" transform="matrix(1 0 0 1 800.758 1126)">
   <path d="M25.6348 8.05664L85.7422 8.05664C94.3848 8.05664 98.877 3.4668 98.877-5.0293L98.877-65.2344C98.877-73.7305 94.3848-78.3691 85.7422-78.3691L25.6348-78.3691C16.9922-78.3691 12.4512-73.877 12.4512-65.2344L12.4512-5.0293C12.4512 3.56445 16.9922 8.05664 25.6348 8.05664ZM55.6641-8.1543C54.834-8.1543 54.248-8.69141 54.248-9.57031L54.248-13.623C47.168-14.0625 41.9434-18.1152 40.8203-23.7793C40.7227-24.2188 40.6738-24.6094 40.6738-25C40.6738-26.0742 41.3086-26.709 42.1875-26.709C43.1641-26.709 43.7012-26.1719 43.8477-25.1465C44.4336-20.5078 48.5352-17.2363 54.248-16.748L54.248-34.082L53.4668-34.2773C45.5566-36.1328 41.6504-39.6484 41.6504-45.0684C41.6504-51.123 47.168-55.6152 54.248-56.1523L54.248-59.5703C54.248-60.498 54.7852-61.0352 55.6641-61.0352C56.4941-61.0352 57.1777-60.4492 57.1777-59.5703L57.1777-56.1523C63.6719-55.7129 68.7012-51.9043 69.7754-46.9238C69.8242-46.5332 69.9219-46.0938 69.9219-45.7031C69.9219-44.7266 69.2871-44.043 68.3105-44.043C67.3828-44.043 66.8945-44.5801 66.6504-45.6055C65.9668-49.6094 62.2559-52.5391 57.1777-52.9297L57.1777-36.7188L58.6426-36.377C66.7969-34.5703 70.7031-31.0547 70.7031-25.1953C70.7031-18.75 65.1855-14.0625 57.1777-13.5742L57.1777-9.57031C57.1777-8.74023 56.4941-8.1543 55.6641-8.1543ZM54.248-37.4512L54.248-52.9297C48.9746-52.4902 44.9219-49.3652 44.9219-45.1172C44.9219-41.2109 47.998-38.9648 53.9551-37.5ZM57.1777-33.3984L57.1777-16.748C63.4277-17.1387 67.4805-20.5566 67.4805-25.1465C67.4805-29.248 64.6484-31.6406 58.2031-33.1543Z"/>
  </g>
  <g id="Ultralight-M" transform="matrix(1 0 0 1 504.535 1126)">
   <path d="M25 7.56836L85.3516 7.56836C93.5059 7.56836 97.9004 3.125 97.9004-4.98047L97.9004-65.2832C97.9004-73.3887 93.5059-77.832 85.3516-77.832L25-77.832C16.7969-77.832 12.4512-73.4863 12.4512-65.2832L12.4512-4.98047C12.4512 3.22266 16.7969 7.56836 25 7.56836ZM55.1758-8.64258C54.4922-8.64258 54.0039-9.0332 54.0039-9.76562L54.0039-13.9648C46.8262-14.3555 41.6992-18.457 40.6738-24.1211C40.625-24.5117 40.5273-24.8535 40.5273-25.2441C40.5273-26.123 41.0156-26.5625 41.6992-26.5625C42.4805-26.5625 42.8711-26.0742 42.9199-25.293C43.4082-20.2637 47.9004-16.7969 54.0039-16.3574L54.0039-34.4238L53.125-34.6191C45.3125-36.4258 41.5527-39.8438 41.5527-44.9707C41.5527-50.8301 47.0703-55.2246 54.0039-55.6641L54.0039-59.082C54.0039-59.8145 54.4434-60.2539 55.1758-60.2539C55.8105-60.2539 56.3965-59.7656 56.3965-59.082L56.3965-55.6641C62.9395-55.2734 67.9199-51.5137 68.8965-46.6309C68.9453-46.2891 69.043-45.8984 69.043-45.5078C69.043-44.7266 68.5547-44.2383 67.8223-44.2383C67.0898-44.2383 66.6992-44.6777 66.6016-45.5566C65.9668-49.707 61.9141-52.8809 56.3965-53.2227L56.3965-36.3281L58.1055-35.9863C66.1133-34.082 69.8242-30.7617 69.8242-25.1465C69.8242-19.0918 64.502-14.3555 56.3965-13.916L56.3965-9.76562C56.3965-9.13086 55.8105-8.64258 55.1758-8.64258ZM54.0039-36.9141L54.0039-53.2227C48.4375-52.8809 43.9453-49.5605 43.9453-44.9707C43.9453-40.7715 47.3633-38.4766 53.7598-36.9629ZM56.3965-33.8867L56.3965-16.3574C62.9395-16.6504 67.4805-20.2637 67.4805-25.1465C67.4805-29.541 64.3555-32.0312 57.4219-33.5938Z"/>
  </g>
  <g id="Black-S" transform="matrix(1 0 0 1 2885.5 696)">
   <path d="M25 2.92969L70.8008 2.92969C80.3711 2.92969 86.0352-2.73438 86.0352-12.3047L86.0352-58.1055C86.0352-67.6758 80.3711-73.3398 70.8008-73.3398L25-73.3398C15.4297-73.3398 9.76562-67.6758 9.76562-58.1055L9.76562-12.3047C9.76562-2.73438 15.4297 2.92969 25 2.92969ZM48.3887-13.8672C47.4609-13.8672 46.875-14.502 46.875-15.4785L46.875-17.6758C39.3555-17.9688 35.8887-21.3379 34.668-24.0723C34.2773-24.8535 34.1797-25.5859 34.1797-26.2207C34.1797-28.8086 35.8887-30.6152 39.0137-30.6152C41.2598-30.6152 42.6758-29.4922 43.75-27.6855C44.2871-26.7578 45.2148-26.0742 46.875-25.8301L46.875-30.7617L44.3848-31.2988C37.5-32.7148 33.7402-35.8887 33.7402-41.748C33.7402-48.2422 39.209-52.4414 46.875-52.832L46.875-55.2246C46.875-56.2012 47.4609-56.8359 48.3887-56.8359C49.2676-56.8359 49.9023-56.2012 49.9023-55.2246L49.9023-52.832C56.5918-52.3438 60.498-49.3164 61.6699-45.9473C61.9141-45.3125 62.0605-44.5801 62.0605-43.8965C62.0605-41.6016 60.3027-40.0391 57.4707-40.0391C55.4199-40.0391 53.9062-40.918 52.5879-42.8223C51.9531-43.7012 51.123-44.3359 49.9023-44.5801L49.9023-39.7949L52.4414-39.2578C59.668-37.7441 63.1836-34.7656 63.1836-29.0527C63.1836-22.6074 58.0566-18.3105 49.9023-17.7246L49.9023-15.4785C49.9023-14.502 49.2676-13.8672 48.3887-13.8672ZM46.875-40.4785L46.875-44.7754C45.166-44.6777 44.043-43.8965 44.043-42.6758C44.043-41.5527 44.9707-40.8203 46.582-40.5273ZM49.9023-30.127L49.9023-25.8301C51.7578-26.0742 52.9297-26.709 52.9297-27.9785C52.9297-29.1504 52.0996-29.6875 50.1953-30.0781Z"/>
  </g>
  <g id="Heavy-S" transform="matrix(1 0 0 1 2589.4 696)">
   <path d="M24.3652 2.34375L70.2637 2.34375C79.541 2.34375 84.8145-2.97852 84.8145-12.207L84.8145-58.2031C84.8145-67.4316 79.541-72.7539 70.2637-72.7539L24.3652-72.7539C15.0879-72.7539 9.76562-67.4316 9.76562-58.2031L9.76562-12.207C9.76562-2.97852 15.0879 2.34375 24.3652 2.34375ZM47.6562-13.5254C46.6797-13.5254 46.0449-14.209 46.0449-15.2344L46.0449-17.5781C39.0625-17.9199 35.3516-21.1426 34.1309-24.3164C33.8379-25 33.7402-25.6836 33.7402-26.2695C33.7402-28.6133 35.3027-30.2246 38.0371-30.2246C40.0391-30.2246 41.3574-29.1992 42.2852-27.4902C42.8711-26.2207 43.9941-25.293 46.0449-24.9512L46.0449-31.3477L44.0918-31.7871C37.2559-33.252 33.5449-36.377 33.5449-42.0898C33.5449-48.3398 38.7207-52.4902 46.0449-52.9297L46.0449-55.4199C46.0449-56.4453 46.6797-57.1289 47.6562-57.1289C48.6328-57.1289 49.3164-56.4453 49.3164-55.4199L49.3164-52.9297C55.6152-52.3926 59.5703-49.4141 60.6934-45.8008C60.9375-45.2148 61.084-44.5801 61.084-43.9453C61.084-41.8457 59.4727-40.3809 56.9336-40.3809C55.0293-40.3809 53.6621-41.2598 52.5879-43.0176C51.8555-44.2871 50.8301-45.1172 49.3164-45.4102L49.3164-39.3066L51.3672-38.8672C58.4961-37.4512 62.0605-34.375 62.0605-28.6621C62.0605-22.3145 56.9824-18.1641 49.3164-17.5781L49.3164-15.2344C49.3164-14.209 48.6328-13.5254 47.6562-13.5254ZM46.0449-40.0879L46.0449-45.5566C43.9941-45.3613 42.7246-44.2871 42.7246-42.8711C42.7246-41.5039 43.75-40.5762 45.752-40.1367ZM49.3164-30.6152L49.3164-24.9512C51.6113-25.2441 52.9297-26.2207 52.9297-27.7832C52.9297-29.1992 52.002-29.9805 49.7559-30.5176Z"/>
  </g>
  <g id="Bold-S" transform="matrix(1 0 0 1 2293.35 696)">
   <path d="M23.6328 1.66016L69.6289 1.66016C78.6133 1.66016 83.4961-3.22266 83.4961-12.1094L83.4961-58.3008C83.4961-67.1875 78.6133-72.0703 69.6289-72.0703L23.6328-72.0703C14.6973-72.0703 9.76562-67.1875 9.76562-58.3008L9.76562-12.1094C9.76562-3.22266 14.6973 1.66016 23.6328 1.66016ZM46.875-13.1348C45.8008-13.1348 45.0684-13.8672 45.0684-14.9414L45.0684-17.4316C38.7207-17.8711 34.7656-20.9473 33.5449-24.6094C33.3008-25.1953 33.2031-25.7812 33.2031-26.3184C33.2031-28.3691 34.6191-29.834 36.9141-29.834C38.6719-29.834 39.8438-28.9062 40.625-27.2461C41.2598-25.6348 42.627-24.3652 45.0684-24.0234L45.0684-32.0312L43.75-32.3242C36.9629-33.8379 33.3496-36.9141 33.3496-42.4805C33.3496-48.4863 38.2324-52.4902 45.0684-53.0273L45.0684-55.6152C45.0684-56.6895 45.8008-57.4707 46.875-57.4707C47.9004-57.4707 48.6816-56.6895 48.6816-55.6152L48.6816-53.0273C54.541-52.4902 58.4961-49.5117 59.668-45.6543C59.8145-45.1172 59.9609-44.5312 59.9609-43.9941C59.9609-42.0898 58.4961-40.7227 56.3477-40.7227C54.5898-40.7227 53.418-41.6016 52.5391-43.2129C51.8066-44.9219 50.5371-45.9961 48.6816-46.3867L48.6816-38.7207L50.0977-38.4277C57.2266-37.0605 60.791-33.8867 60.791-28.2715C60.791-21.9238 55.7617-18.0176 48.6816-17.4316L48.6816-14.9414C48.6816-13.8672 47.9004-13.1348 46.875-13.1348ZM45.0684-39.5996L45.0684-46.4844C42.6758-46.0938 41.2598-44.7754 41.2598-43.1152C41.2598-41.4551 42.3828-40.332 44.7754-39.6973ZM48.6816-31.2012L48.6816-24.0234C51.5137-24.3652 52.8809-25.6348 52.8809-27.5879C52.8809-29.2969 51.9043-30.3223 49.2188-31.0547Z"/>
  </g>
  <g id="Semibold-S" transform="matrix(1 0 0 1 1997.1 696)">
   <path d="M23.0957 1.17188L69.1895 1.17188C77.9297 1.17188 82.5684-3.36914 82.5684-12.0117L82.5684-58.3984C82.5684-67.041 77.9297-71.582 69.1895-71.582L23.0957-71.582C14.4043-71.582 9.76562-67.041 9.76562-58.3984L9.76562-12.0117C9.76562-3.36914 14.4043 1.17188 23.0957 1.17188ZM46.3379-12.8418C45.2148-12.8418 44.4336-13.623 44.4336-14.7949L44.4336-17.334C38.4766-17.8223 34.3262-20.8008 33.1055-24.8047C32.959-25.3418 32.8613-25.8789 32.8613-26.3672C32.8613-28.2227 34.1309-29.541 36.1328-29.541C37.7441-29.541 38.8184-28.7109 39.502-27.0996C40.1855-25.2441 41.6504-23.7793 44.4336-23.3398L44.4336-32.4707L43.5059-32.666C36.7676-34.2285 33.2031-37.3047 33.2031-42.7246C33.2031-48.584 37.8418-52.4902 44.4336-53.125L44.4336-55.7617C44.4336-56.8848 45.2148-57.666 46.3379-57.666C47.4121-57.666 48.2422-56.8848 48.2422-55.7617L48.2422-53.125C53.8086-52.5391 57.8125-49.5605 58.9355-45.5566C59.0332-45.0195 59.1797-44.5312 59.1797-43.9941C59.1797-42.2363 57.8613-41.0156 55.957-41.0156C54.2969-41.0156 53.2715-41.8457 52.5391-43.3594C51.7578-45.3613 50.293-46.582 48.2422-47.0215L48.2422-38.3301L49.2676-38.1348C56.2988-36.8164 59.9121-33.5938 59.9121-27.9785C59.9121-21.6797 54.9316-17.9199 48.2422-17.334L48.2422-14.7949C48.2422-13.623 47.4121-12.8418 46.3379-12.8418ZM44.4336-39.3066L44.4336-47.0703C41.748-46.6309 40.2344-45.0684 40.2344-43.2617C40.2344-41.4062 41.4551-40.1855 44.1406-39.3555ZM48.2422-31.543L48.2422-23.3398C51.416-23.7305 52.8809-25.293 52.8809-27.4414C52.8809-29.3457 51.8555-30.5664 48.877-31.3965Z"/>
  </g>
  <g id="Medium-S" transform="matrix(1 0 0 1 1700.75 696)">
   <path d="M22.7051 0.830078L68.8965 0.830078C77.4414 0.830078 81.8359-3.51562 81.8359-11.9629L81.8359-58.4473C81.8359-66.8945 77.4414-71.2402 68.8965-71.2402L22.7051-71.2402C14.209-71.2402 9.76562-66.8945 9.76562-58.4473L9.76562-11.9629C9.76562-3.51562 14.209 0.830078 22.7051 0.830078ZM45.8984-12.6465C44.7754-12.6465 43.9453-13.4277 43.9453-14.6484L43.9453-17.2363C38.3301-17.7734 34.0332-20.7031 32.8125-24.9512C32.666-25.4395 32.5684-25.9277 32.5684-26.3672C32.5684-28.0762 33.7891-29.2969 35.5469-29.2969C37.0117-29.2969 38.0371-28.5645 38.6719-27.002C39.3555-24.9023 40.9668-23.291 43.9453-22.8516L43.9453-32.8125L43.3105-32.959C36.6211-34.5215 33.1055-37.5977 33.1055-42.9199C33.1055-48.6816 37.5488-52.5391 43.9453-53.1738L43.9453-55.8594C43.9453-57.0312 44.7754-57.8613 45.8984-57.8613C47.0215-57.8613 47.9004-57.0312 47.9004-55.8594L47.9004-53.1738C53.2227-52.5879 57.2266-49.6582 58.3496-45.459C58.4961-44.9707 58.5938-44.4824 58.5938-44.043C58.5938-42.3828 57.373-41.2109 55.6152-41.2109C54.1016-41.2109 53.125-42.041 52.4902-43.457C51.709-45.7031 50.1465-47.0215 47.9004-47.5098L47.9004-38.0371L48.6328-37.8906C55.6152-36.6699 59.2285-33.3496 59.2285-27.7832C59.2285-21.4844 54.2969-17.8223 47.9004-17.2363L47.9004-14.6484C47.9004-13.4277 47.0215-12.6465 45.8984-12.6465ZM43.9453-39.0625L43.9453-47.5586C41.0645-47.0215 39.4531-45.3125 39.4531-43.3594C39.4531-41.4062 40.7227-40.0391 43.6523-39.1602ZM47.9004-31.8359L47.9004-22.8516C51.3184-23.2422 52.8809-25 52.8809-27.2949C52.8809-29.3945 51.8066-30.7617 48.6328-31.6406Z"/>
  </g>
  <g id="Regular-S" transform="matrix(1 0 0 1 1404.51 696)">
   <path d="M22.2168 0.390625L68.457 0.390625C76.8066 0.390625 80.9082-3.71094 80.9082-11.9141L80.9082-58.4961C80.9082-66.6992 76.8066-70.8008 68.457-70.8008L22.2168-70.8008C13.916-70.8008 9.76562-66.6992 9.76562-58.4961L9.76562-11.9141C9.76562-3.71094 13.916 0.390625 22.2168 0.390625ZM45.3613-12.3535C44.1895-12.3535 43.2617-13.2324 43.2617-14.4531L43.2617-17.1875C38.0859-17.7246 33.5938-20.5566 32.4219-25.1465C32.3242-25.5371 32.2266-25.9766 32.2266-26.416C32.2266-27.9297 33.3008-29.0039 34.8145-29.0039C36.084-29.0039 37.0117-28.3691 37.5488-26.8555C38.2812-24.5117 40.0391-22.7051 43.2617-22.168L43.2617-33.252L43.1152-33.3496C36.4258-34.9121 32.959-37.9883 32.959-43.2129C32.959-48.7793 37.207-52.5391 43.2617-53.2715L43.2617-56.0059C43.2617-57.2266 44.1895-58.0566 45.3613-58.0566C46.5332-58.0566 47.4609-57.2266 47.4609-56.0059L47.4609-53.2715C52.4902-52.6367 56.543-49.707 57.6172-45.3613C57.7148-44.9219 57.8125-44.4824 57.8125-44.043C57.8125-42.5293 56.7383-41.4551 55.2246-41.4551C53.8086-41.4551 52.9785-42.2852 52.4902-43.6035C51.6113-46.1426 49.9512-47.6562 47.4609-48.1445L47.4609-37.6465L47.8027-37.5977C54.7363-36.4258 58.3496-33.0566 58.3496-27.4902C58.3496-21.2402 53.4668-17.7246 47.4609-17.1387L47.4609-14.4531C47.4609-13.2324 46.5332-12.3535 45.3613-12.3535ZM43.2617-38.7695L43.2617-48.1445C40.1855-47.5586 38.4766-45.6543 38.4766-43.5059C38.4766-41.3574 39.7949-39.8926 42.9688-38.8184ZM47.4609-32.2266L47.4609-22.168C51.2207-22.6562 52.832-24.6094 52.832-27.1484C52.832-29.4434 51.7578-31.0059 48.291-31.9824Z"/>
  </g>
  <g id="Light-S" transform="matrix(1 0 0 1 1108.46 696)">
   <path d="M21.3867-0.292969L67.9688-0.292969C75.7324-0.292969 79.5898-4.15039 79.5898-11.7676L79.5898-58.5938C79.5898-66.2109 75.7324-70.1172 67.9688-70.1172L21.3867-70.1172C13.6719-70.1172 9.76562-66.2598 9.76562-58.5938L9.76562-11.7676C9.76562-4.15039 13.6719-0.292969 21.3867-0.292969ZM44.6777-12.9883C43.7012-12.9883 42.9688-13.6719 42.9688-14.6973L42.9688-17.627C37.6465-18.0664 33.3008-21.0449 32.2266-25.5859C32.1777-25.9766 32.0801-26.3184 32.0801-26.709C32.0801-27.9785 32.959-28.8574 34.1309-28.8574C35.2051-28.8574 35.9375-28.2715 36.3281-27.0508C36.9141-24.2188 39.2578-22.1191 42.9688-21.6309L42.9688-33.6914L42.627-33.7891C36.1328-35.3027 32.8125-38.2324 32.8125-43.1152C32.8125-48.3398 37.1094-52.0508 42.9688-52.6367L42.9688-55.3223C42.9688-56.3965 43.7012-57.0801 44.6777-57.0801C45.6543-57.0801 46.4355-56.3477 46.4355-55.3223L46.4355-52.6367C51.4648-52.0996 55.4688-49.1699 56.4941-44.9707C56.5918-44.5801 56.6406-44.1895 56.6406-43.7988C56.6406-42.5781 55.7617-41.6992 54.5898-41.6992C53.418-41.6992 52.7344-42.3828 52.3926-43.5059C51.6602-46.2891 49.4629-48.0957 46.4355-48.5352L46.4355-37.1582L47.0703-37.0605C53.8086-35.7422 57.2266-32.6172 57.2266-27.4414C57.2266-21.6797 52.5391-18.0664 46.4355-17.5781L46.4355-14.6973C46.4355-13.7207 45.6543-12.9883 44.6777-12.9883ZM42.9688-38.0371L42.9688-48.5352C39.4531-47.998 37.207-45.8984 37.207-43.3105C37.207-40.8203 38.9648-39.209 42.7246-38.1348ZM46.4355-32.8125L46.4355-21.6309C50.6348-22.0215 52.832-24.2676 52.832-27.1973C52.832-29.834 51.3184-31.543 47.2656-32.6172Z"/>
  </g>
  <g id="Thin-S" transform="matrix(1 0 0 1 812.599 696)">
   <path d="M20.3125-1.12305L67.334-1.12305C74.2676-1.12305 77.8809-4.78516 77.8809-11.6211L77.8809-58.6914C77.8809-65.5762 74.2676-69.2383 67.334-69.2383L20.3125-69.2383C13.3789-69.2383 9.76562-65.625 9.76562-58.6914L9.76562-11.6211C9.76562-4.6875 13.3789-1.12305 20.3125-1.12305ZM43.7988-13.8184C43.1152-13.8184 42.5781-14.3066 42.5781-15.0391L42.5781-18.1641C37.0605-18.5547 32.9102-21.6797 31.9824-26.123C31.9336-26.4648 31.8848-26.8066 31.8848-27.1484C31.8848-28.0273 32.4707-28.6133 33.252-28.6133C34.082-28.6133 34.5215-28.1738 34.7168-27.2949C35.1562-23.7793 38.2324-21.2891 42.5781-20.8984L42.5781-34.2285L42.041-34.3262C35.7422-35.791 32.666-38.5742 32.666-42.9688C32.666-47.8027 36.9629-51.3672 42.5781-51.8066L42.5781-54.4922C42.5781-55.2734 43.0664-55.7129 43.7988-55.7129C44.5312-55.7129 45.0684-55.2246 45.0684-54.4922L45.0684-51.8066C50.1953-51.416 54.1016-48.4375 54.9805-44.4824C55.0293-44.1895 55.127-43.8477 55.127-43.5059C55.127-42.627 54.541-42.041 53.7109-42.041C52.8809-42.041 52.4414-42.5293 52.2461-43.4082C51.6602-46.4355 48.877-48.6328 45.0684-49.0234L45.0684-36.5234L46.1426-36.3281C52.5879-34.9121 55.7129-32.0801 55.7129-27.3926C55.7129-22.2168 51.3184-18.5547 45.0684-18.1152L45.0684-15.0391C45.0684-14.3555 44.5312-13.8184 43.7988-13.8184ZM42.5781-37.1582L42.5781-49.0234C38.5742-48.6328 35.5469-46.2402 35.5469-43.0664C35.5469-40.0879 37.8418-38.3301 42.334-37.207ZM45.0684-33.6426L45.0684-20.8984C49.8535-21.2402 52.832-23.8281 52.832-27.2949C52.832-30.4199 50.7812-32.2754 45.8984-33.3984Z"/>
  </g>
  <g id="Ultralight-S" transform="matrix(1 0 0 1 516.352 696)">
   <path d="M19.7754-1.5625L66.9922-1.5625C73.5352-1.5625 76.9531-5.12695 76.9531-11.5234L76.9531-58.7891C76.9531-65.2344 73.5352-68.75 66.9922-68.75L19.7754-68.75C13.2324-68.75 9.76562-65.2832 9.76562-58.7891L9.76562-11.5234C9.76562-5.0293 13.2324-1.5625 19.7754-1.5625ZM43.3594-14.2578C42.7734-14.2578 42.3828-14.6484 42.3828-15.2344L42.3828-18.5059C36.7676-18.7988 32.7148-21.9727 31.8848-26.4648C31.8359-26.7578 31.7871-27.0508 31.7871-27.3438C31.7871-28.0762 32.2266-28.5156 32.8125-28.5156C33.4473-28.5156 33.7891-28.0762 33.8379-27.3926C34.2773-23.584 37.6953-20.8984 42.3828-20.5566L42.3828-34.5215L41.6992-34.668C35.5469-36.084 32.5684-38.7695 32.5684-42.8711C32.5684-47.5098 36.9141-51.0254 42.3828-51.3672L42.3828-54.0527C42.3828-54.6875 42.7246-55.0293 43.3594-55.0293C43.8965-55.0293 44.3848-54.6387 44.3848-54.0527L44.3848-51.3672C49.5117-51.0742 53.418-48.0957 54.1992-44.2383C54.248-43.9453 54.2969-43.6523 54.2969-43.3594C54.2969-42.6758 53.9062-42.2363 53.2715-42.2363C52.6367-42.2363 52.2949-42.627 52.1973-43.3105C51.6602-46.582 48.584-48.9746 44.3848-49.2676L44.3848-36.2305L45.6543-35.9375C51.9531-34.4727 54.9316-31.7871 54.9316-27.3438C54.9316-22.5098 50.6836-18.7988 44.3848-18.457L44.3848-15.2344C44.3848-14.6484 43.8965-14.2578 43.3594-14.2578ZM42.3828-36.6699L42.3828-49.2676C38.0859-48.9746 34.7168-46.3867 34.7168-42.9199C34.7168-39.6973 37.2559-37.8906 42.1387-36.7188ZM44.3848-34.0332L44.3848-20.5566C49.4141-20.8008 52.8809-23.584 52.8809-27.3438C52.8809-30.7129 50.4883-32.6172 45.2148-33.8379Z"/>
  </g>
 </g>
</svg>
